<svg version="1.1" id="Layer_1" xmlns="http://www.w3.org/2000/svg" xmlns:xlink="http://www.w3.org/1999/xlink" x="0px" y="0px" width="32px" height="32px" viewBox="0 0 32 32" enable-background="new 0 0 32 32" xml:space="preserve">
  <g id="main">
    <g id="icon">
      <path d="M13.52,0.07363L13.42,0.08379L12.03,0.2959L11.93,0.316L10.59,0.6609L10.49,0.6904L9.207,1.161L9.117,1.199L7.893,1.789L7.808,1.835L6.653,2.536L6.574,2.59L5.496,3.396L5.422,3.457L4.428,4.361L4.361,4.428L3.457,5.422L3.396,5.496L2.59,6.574L2.536,6.653L1.835,7.808L1.789,7.893L1.199,9.117L1.161,9.207L0.6904,10.49L0.6609,10.59L0.316,11.93L0.2959,12.03L0.08379,13.42L0.07363,13.52L0.001367,14.95L0.001367,15.05L0.07363,16.48L0.08379,16.58L0.2959,17.97L0.316,18.07L0.6609,19.41L0.6904,19.51L1.161,20.79L1.199,20.88L1.789,22.11L1.835,22.19L2.536,23.35L2.59,23.43L3.396,24.5L3.457,24.58L4.361,25.57L4.428,25.64L5.422,26.54L5.496,26.6L6.574,27.41L6.653,27.46L7.808,28.16L7.893,28.21L9.117,28.8L9.207,28.84L10.49,29.31L10.59,29.34L11.93,29.68L12.03,29.7L13.42,29.92L13.52,29.93L14.95,30L15.05,30L16.48,29.93L16.58,29.92L17.97,29.7L18.07,29.68L19.41,29.34L19.51,29.31L20.79,28.84L20.88,28.8L22.11,28.21L22.19,28.16L22.3,28.1L21.36,26.67L21.21,26.42L21.2,26.43L20.06,26.98L18.87,27.41L17.62,27.73L16.33,27.93L15,28L13.67,27.93L12.38,27.73L11.13,27.41L9.941,26.98L8.804,26.43L7.732,25.78L6.731,25.03L5.808,24.19L4.97,23.27L4.221,22.27L3.57,21.2L3.022,20.06L2.585,18.87L2.265,17.62L2.069,16.33L2.001,15L2.069,13.67L2.265,12.38L2.585,11.13L3.022,9.941L3.57,8.804L4.221,7.732L4.97,6.731L5.808,5.808L6.731,4.97L7.732,4.221L8.804,3.57L9.941,3.022L11.13,2.585L12.38,2.265L13.67,2.069L15,2.001L16.33,2.069L17.62,2.265L18.87,2.585L20.06,3.022L21.2,3.57L22.27,4.221L23.27,4.97L24.19,5.808L25.03,6.731L25.78,7.732L26.43,8.804L26.98,9.941L27.41,11.13L27.73,12.38L27.93,13.67L28,15L27.96,15.85L28.17,15.9L28.95,16.17L29.68,16.54L29.9,16.68L29.92,16.58L29.93,16.48L30,15.05L30,14.95L29.93,13.52L29.92,13.42L29.7,12.03L29.68,11.93L29.34,10.59L29.31,10.49L28.84,9.207L28.8,9.117L28.21,7.893L28.16,7.808L27.46,6.653L27.41,6.574L26.6,5.496L26.54,5.422L25.64,4.428L25.57,4.361L24.58,3.457L24.5,3.396L23.43,2.59L23.35,2.536L22.19,1.835L22.11,1.789L20.88,1.199L20.79,1.161L19.51,0.6904L19.41,0.6609L18.07,0.316L17.97,0.2959L16.58,0.08379L16.48,0.07363L15.05,0.001367L14.95,0.001367zz" fill="#797979"/>
      <path d="M1.8,12L28.2,12L28.2,10L1.8,10zz" fill="#797979"/>
      <path d="M1.9,20L20.21,20L20.32,19.69L20.6,19.11L20.93,18.57L21.31,18.06L21.36,18L1.9,18zz" fill="#797979"/>
      <path d="M11.43,1.743L11.38,1.848L10.77,3.29L10.73,3.376L10.22,4.994L10.2,5.065L9.777,6.828L9.765,6.889L9.437,8.769L9.429,8.823L9.195,10.79L9.19,10.84L9.049,12.86L9.047,12.91L9,14.96L9,15.01L9.047,17.06L9.049,17.11L9.19,19.13L9.195,19.18L9.429,21.14L9.437,21.2L9.765,23.07L9.778,23.13L10.2,24.88L10.22,24.95L10.74,26.56L10.77,26.65L11.38,28.07L11.43,28.18L12.13,29.4L13.87,28.4L13.19,27.23L12.63,25.9L12.14,24.38L11.73,22.69L11.41,20.88L11.18,18.97L11.05,16.99L11,14.99L11.05,12.98L11.18,11L11.41,9.088L11.73,7.264L12.14,5.563L12.63,4.027L13.2,2.68L13.87,1.494L12.13,0.5059zz" fill="#797979"/>
      <path d="M16.23,1.491L16.88,2.645L17.43,3.97L17.9,5.503L18.29,7.2L18.6,9.032L18.82,10.96L18.96,12.96L19,14.99L18.96,17.01L18.82,19.01L18.6,20.93L18.29,22.76L17.9,24.44L17.43,25.96L16.88,27.27L16.23,28.4L17.97,29.4L18.65,28.21L18.7,28.1L19.29,26.69L19.32,26.6L19.82,25L19.84,24.93L20.05,24.02L19.99,23.81L19.85,23.04L19.8,22.25L19.83,21.58L19.93,20.93L20.1,20.29L20.32,19.69L20.6,19.11L20.85,18.7L20.95,17.12L20.95,17.08L21,15.01L21,14.97L20.95,12.89L20.95,12.85L20.82,10.81L20.81,10.76L20.59,8.78L20.58,8.728L20.26,6.84L20.25,6.78L19.84,5.015L19.82,4.945L19.32,3.335L19.29,3.248L18.7,1.824L18.65,1.716L17.97,0.5092zz" fill="#797979"/>
    </g>
    <g id="overlay">
      <path d="M26.4801,16.655c-3.1292,-0.0435,-5.6794,2.48,-5.6794,5.5991c0,0.9259,0.2247,1.7992,0.6225,2.5686c0.7906,1.5289,3.8273,5.7955,4.7255,7.048c0.1237,0.1724,0.3796,0.1724,0.5033,0c0.8982,-1.2525,3.9348,-5.5191,4.7255,-7.0479c0.4009,-0.7751,0.626,-1.6559,0.6226,-2.5895C31.9889,19.1944,29.5187,16.6973,26.4801,16.655zM26.4003,24.3091c-1.1349,0,-2.0549,-0.92,-2.0549,-2.0549c0,-1.1349,0.92,-2.0549,2.0549,-2.0549c1.1349,0,2.0549,0.92,2.0549,2.0549C28.4552,23.389,27.5352,24.3091,26.4003,24.3091z" fill="#217346"/>
    </g>
  </g>
</svg>
