<svg version="1.1" id="Layer_1" xmlns="http://www.w3.org/2000/svg" xmlns:xlink="http://www.w3.org/1999/xlink" x="0px" y="0px" width="16px" height="16px" viewBox="0 0 16 16" enable-background="new 0 0 16 16" xml:space="preserve">
  <g id="main">
    <g id="icon">
      <path d="M7.465,0.0009766L6.77,0.03594L6.734,0.0377L6.699,0.04316L6.024,0.1461L5.989,0.1514L5.955,0.1602L5.304,0.3277L5.27,0.3363L5.237,0.3484L4.613,0.577L4.58,0.5889L4.549,0.6037L3.955,0.89L3.924,0.9049L3.895,0.9225L3.335,1.263L3.306,1.281L3.279,1.301L2.755,1.692L2.729,1.712L2.704,1.735L2.221,2.174L2.196,2.196L2.174,2.221L1.735,2.704L1.712,2.729L1.692,2.755L1.301,3.279L1.281,3.306L1.263,3.335L0.9225,3.895L0.9049,3.924L0.89,3.955L0.6037,4.549L0.5889,4.58L0.577,4.613L0.3484,5.237L0.3363,5.27L0.3277,5.304L0.1602,5.955L0.1514,5.989L0.1461,6.024L0.04316,6.699L0.0377,6.734L0.03594,6.77L0.0009766,7.465L-0,7.482L0,7.518L0.0009766,7.535L0.03594,8.23L0.0377,8.266L0.04316,8.301L0.1461,8.976L0.1514,9.011L0.1602,9.045L0.3277,9.696L0.3363,9.73L0.3484,9.763L0.577,10.39L0.5889,10.42L0.6037,10.45L0.89,11.05L0.9049,11.08L0.9225,11.1L1.263,11.67L1.281,11.69L1.301,11.72L1.692,12.24L1.712,12.27L1.735,12.3L2.174,12.78L2.196,12.8L2.221,12.83L2.704,13.27L2.729,13.29L2.755,13.31L3.279,13.7L3.306,13.72L3.335,13.74L3.895,14.08L3.924,14.1L3.955,14.11L4.549,14.4L4.58,14.41L4.613,14.42L5.237,14.65L5.27,14.66L5.304,14.67L5.955,14.84L5.989,14.85L6.024,14.85L6.699,14.96L6.734,14.96L6.77,14.96L7.465,15L7.5,15L7.535,15L8.23,14.96L8.266,14.96L8.301,14.96L8.976,14.85L9.011,14.85L9.045,14.84L9.696,14.67L9.73,14.66L9.763,14.65L10,14.56L9.438,13.75L9.181,13.36L8.73,13.48L8.124,13.57L7.5,13.6L6.876,13.57L6.27,13.48L5.687,13.33L5.125,13.12L4.593,12.86L4.09,12.56L3.621,12.21L3.187,11.81L2.794,11.38L2.443,10.91L2.137,10.41L1.88,9.875L1.675,9.313L1.525,8.73L1.432,8.124L1.401,7.5L1.432,6.876L1.525,6.27L1.675,5.687L1.88,5.125L2.137,4.593L2.443,4.09L2.794,3.621L3.187,3.187L3.621,2.794L4.09,2.443L4.593,2.137L5.125,1.88L5.687,1.675L6.27,1.525L6.876,1.432L7.5,1.401L8.124,1.432L8.73,1.525L9.313,1.675L9.875,1.88L10.41,2.137L10.91,2.443L11.38,2.794L11.81,3.187L12.21,3.621L12.56,4.09L12.86,4.593L13.07,5.021L13.46,5.096L13.96,5.251L14.43,5.46L14.76,5.653L14.67,5.304L14.66,5.27L14.65,5.237L14.42,4.613L14.41,4.58L14.4,4.549L14.11,3.955L14.1,3.924L14.08,3.895L13.74,3.335L13.72,3.306L13.7,3.279L13.31,2.755L13.29,2.729L13.27,2.704L12.83,2.221L12.8,2.196L12.78,2.174L12.3,1.735L12.27,1.712L12.24,1.692L11.72,1.301L11.69,1.281L11.67,1.263L11.1,0.9225L11.08,0.9049L11.05,0.89L10.45,0.6037L10.42,0.5889L10.39,0.577L9.763,0.3484L9.73,0.3363L9.696,0.3277L9.045,0.1602L9.011,0.1514L8.976,0.1461L8.301,0.04316L8.266,0.0377L8.23,0.03594L7.535,0.0009766L7.518,0L7.482,0zz" fill="#797979"/>
      <path d="M0.7,6.2L9.19,6.2L9.729,5.755L10.52,5.325L11.4,5.052L11.91,5L0.7,5zM13.46,5.096L13.9,5.233L13.9,5L12.96,5zz" fill="#797979"/>
      <path d="M0.75,10L7.693,10L7.671,9.622L7.754,8.8L0.75,8.8zz" fill="#797979"/>
      <path d="M5.666,1.004L5.648,1.035L5.635,1.067L5.339,1.768L5.328,1.793L5.32,1.819L5.069,2.605L5.063,2.626L5.057,2.647L4.853,3.504L4.848,3.522L4.845,3.541L4.686,4.454L4.683,4.47L4.681,4.486L4.567,5.442L4.564,5.463L4.563,5.485L4.472,7.466L4.471,7.494L4.472,7.521L4.563,9.5L4.564,9.522L4.567,9.544L4.681,10.5L4.683,10.51L4.686,10.53L4.845,11.44L4.848,11.46L4.853,11.48L5.058,12.33L5.063,12.35L5.07,12.37L5.32,13.15L5.329,13.18L5.34,13.2L5.636,13.89L5.65,13.93L5.668,13.96L6.009,14.55L7.049,13.95L6.725,13.39L6.455,12.76L6.219,12.02L6.024,11.21L5.871,10.34L5.761,9.422L5.672,7.494L5.761,5.563L5.871,4.645L6.024,3.764L6.22,2.948L6.455,2.21L6.726,1.567L7.051,0.9965L6.007,0.4035zz" fill="#797979"/>
      <path d="M7.997,0.9945L8.31,1.549L8.571,2.182L8.799,2.918L8.988,3.736L9.136,4.616L9.242,5.543L9.269,6.135L9.729,5.755L10.43,5.374L10.33,4.466L10.33,4.45L10.32,4.435L10.17,3.517L10.17,3.499L10.16,3.482L9.963,2.625L9.958,2.603L9.952,2.582L9.71,1.8L9.702,1.774L9.691,1.748L9.405,1.057L9.391,1.023L9.373,0.9916L9.043,0.4055zM8.571,12.78L8.311,13.41L7.999,13.95L9.041,14.55L9.371,13.97L9.389,13.94L9.404,13.9L9.457,13.78L9.438,13.75L8.7,12.63L8.648,12.54zz" fill="#797979"/>
    </g>
    <g id="overlay">
      <path d="M12.3876,5.9578c-2.0478,-0.0285,-3.7168,1.623,-3.7168,3.6642c0,0.6059,0.1471,1.1775,0.4074,1.681c0.5174,1.0005,2.5047,3.7927,3.0925,4.6124c0.0809,0.1128,0.2484,0.1128,0.3294,0c0.5878,-0.8197,2.5751,-3.6118,3.0925,-4.6123c0.2623,-0.5073,0.4096,-1.0837,0.4074,-1.6947C15.9927,7.6196,14.3762,5.9855,12.3876,5.9578zM12.3354,10.9668c-0.7427,0,-1.3448,-0.6021,-1.3448,-1.3448c0,-0.7427,0.6021,-1.3448,1.3448,-1.3448c0.7427,0,1.3448,0.6021,1.3448,1.3448C13.6802,10.3647,13.0781,10.9668,12.3354,10.9668z" fill="#217346"/>
    </g>
  </g>
</svg>